<svg id="Group_58744" data-name="Group 58744" xmlns="http://www.w3.org/2000/svg" width="220.838" height="71.185" viewBox="0 0 220.838 71.185">
  <g id="Group_51123" data-name="Group 51123" transform="translate(74.838 10.752)">
    <g id="Group_66" data-name="Group 66" transform="translate(0 31.216)">
      <g id="Group_22" data-name="Group 22" transform="translate(5.395)">
        <g id="Group_5" data-name="Group 5">
          <path id="Path_9" data-name="Path 9" d="M316.322,425.5a4.913,4.913,0,0,1-1.492-.227,4.824,4.824,0,0,1-1.37-.7v-1.813h.892l.192,1.335a3.323,3.323,0,0,0,.822.362,3.426,3.426,0,0,0,.956.128,2.464,2.464,0,0,0,.988-.177,1.424,1.424,0,0,0,.621-.493,1.361,1.361,0,0,0,.029-1.423,1.558,1.558,0,0,0-.615-.522,4.97,4.97,0,0,0-1.169-.393,5.574,5.574,0,0,1-1.478-.545,2.533,2.533,0,0,1-.915-.828,2.022,2.022,0,0,1-.312-1.116,2.084,2.084,0,0,1,.352-1.189,2.418,2.418,0,0,1,.982-.827,3.351,3.351,0,0,1,1.469-.3,4.259,4.259,0,0,1,1.577.271,3.884,3.884,0,0,1,1.128.656v1.7h-.892l-.192-1.213a2.268,2.268,0,0,0-.653-.35,2.9,2.9,0,0,0-.968-.14,2.043,2.043,0,0,0-.863.172,1.39,1.39,0,0,0-.583.481,1.264,1.264,0,0,0-.21.728,1.1,1.1,0,0,0,.19.641,1.544,1.544,0,0,0,.618.481,6.177,6.177,0,0,0,1.146.387,4.506,4.506,0,0,1,2.032.982,2.117,2.117,0,0,1,.691,1.606,2.067,2.067,0,0,1-.367,1.21,2.432,2.432,0,0,1-1.035.825A3.834,3.834,0,0,1,316.322,425.5Z" transform="translate(-313.286 -416.592)" fill="#1a1818"/>
          <path id="Path_10" data-name="Path 10" d="M316,425.346a5.09,5.09,0,0,1-1.545-.235,5,5,0,0,1-1.419-.724l-.072-.052v-2.076h1.216l.2,1.4a3.186,3.186,0,0,0,.71.3,3.267,3.267,0,0,0,.908.121,2.3,2.3,0,0,0,.918-.163,1.256,1.256,0,0,0,.547-.432,1.186,1.186,0,0,0,.025-1.232,1.4,1.4,0,0,0-.549-.461,4.818,4.818,0,0,0-1.127-.377,5.788,5.788,0,0,1-1.524-.563,2.723,2.723,0,0,1-.976-.885,2.2,2.2,0,0,1-.339-1.21,2.264,2.264,0,0,1,.382-1.286,2.6,2.6,0,0,1,1.051-.887,3.536,3.536,0,0,1,1.544-.32,4.454,4.454,0,0,1,1.641.283,4.079,4.079,0,0,1,1.178.686l.06.052v1.949h-1.214l-.2-1.29a2.178,2.178,0,0,0-.551-.282,2.74,2.74,0,0,0-.909-.13,1.881,1.881,0,0,0-.79.156,1.21,1.21,0,0,0-.512.421,1.087,1.087,0,0,0-.18.631.921.921,0,0,0,.159.543,1.392,1.392,0,0,0,.551.423,6,6,0,0,0,1.112.375,4.7,4.7,0,0,1,2.108,1.024,2.3,2.3,0,0,1,.746,1.732,2.247,2.247,0,0,1-.4,1.309,2.612,2.612,0,0,1-1.107.884A4.028,4.028,0,0,1,316,425.346Zm-2.689-1.19a4.625,4.625,0,0,0,1.249.624A4.75,4.75,0,0,0,316,425a3.677,3.677,0,0,0,1.5-.282,2.269,2.269,0,0,0,.963-.766,1.9,1.9,0,0,0,.336-1.11,1.934,1.934,0,0,0-.637-1.48,4.367,4.367,0,0,0-1.954-.94,6.35,6.35,0,0,1-1.179-.4,1.717,1.717,0,0,1-.685-.539,1.274,1.274,0,0,1-.22-.74,1.438,1.438,0,0,1,.24-.826,1.569,1.569,0,0,1,.653-.541,2.225,2.225,0,0,1,.936-.188,3.067,3.067,0,0,1,1.026.15,2.436,2.436,0,0,1,.7.377l.053.042.179,1.132h.57v-1.442a3.823,3.823,0,0,0-1.018-.575,4.115,4.115,0,0,0-1.513-.259,3.2,3.2,0,0,0-1.394.286,2.253,2.253,0,0,0-.914.768,1.922,1.922,0,0,0-.323,1.092,1.863,1.863,0,0,0,.284,1.023,2.381,2.381,0,0,0,.855.77,5.421,5.421,0,0,0,1.432.527,5.164,5.164,0,0,1,1.21.409,1.728,1.728,0,0,1,.681.583,1.534,1.534,0,0,1-.033,1.613,1.6,1.6,0,0,1-.694.554,2.644,2.644,0,0,1-1.058.192,3.631,3.631,0,0,1-1-.135,3.516,3.516,0,0,1-.865-.381l-.069-.042-.182-1.267h-.568Z" transform="translate(-312.96 -416.266)" fill="#1a1818"/>
        </g>
        <g id="Group_6" data-name="Group 6" transform="translate(7.067)">
          <path id="Path_11" data-name="Path 11" d="M337.338,425.5a3.354,3.354,0,0,1-1.475-.315,3.161,3.161,0,0,1-1.111-.889,4.082,4.082,0,0,1-.7-1.361,5.887,5.887,0,0,1-.242-1.737v-.122a5.9,5.9,0,0,1,.242-1.734,4.112,4.112,0,0,1,.7-1.367,3.144,3.144,0,0,1,1.111-.892,3.349,3.349,0,0,1,1.475-.315,3.5,3.5,0,0,1,1.527.315,3.026,3.026,0,0,1,1.1.892,4.032,4.032,0,0,1,.673,1.367,6.246,6.246,0,0,1,.227,1.734v.122a6.239,6.239,0,0,1-.227,1.737,4,4,0,0,1-.673,1.361,3.041,3.041,0,0,1-1.1.889A3.506,3.506,0,0,1,337.338,425.5Zm0-.956a2.115,2.115,0,0,0,1.367-.42,2.416,2.416,0,0,0,.767-1.175,5.686,5.686,0,0,0,.245-1.752v-.134a5.543,5.543,0,0,0-.248-1.74,2.444,2.444,0,0,0-.772-1.172,2.1,2.1,0,0,0-1.358-.423,2,2,0,0,0-1.294.426,2.612,2.612,0,0,0-.8,1.175,5.034,5.034,0,0,0-.274,1.734v.134a5.1,5.1,0,0,0,.274,1.746,2.592,2.592,0,0,0,.8,1.177A2.011,2.011,0,0,0,337.338,424.543Z" transform="translate(-333.637 -416.592)" fill="#1a1818"/>
          <path id="Path_12" data-name="Path 12" d="M337.011,425.346a3.538,3.538,0,0,1-1.55-.332,3.342,3.342,0,0,1-1.171-.937,4.283,4.283,0,0,1-.73-1.418,6.092,6.092,0,0,1-.25-1.788v-.122a6.1,6.1,0,0,1,.25-1.785,4.293,4.293,0,0,1,.73-1.424,3.326,3.326,0,0,1,1.171-.941,3.538,3.538,0,0,1,1.55-.332,3.692,3.692,0,0,1,1.6.332,3.213,3.213,0,0,1,1.167.943,4.221,4.221,0,0,1,.7,1.425,6.464,6.464,0,0,1,.234,1.783v.122a6.456,6.456,0,0,1-.234,1.785,4.205,4.205,0,0,1-.7,1.419,3.232,3.232,0,0,1-1.167.939A3.692,3.692,0,0,1,337.011,425.346Zm0-8.733a3.2,3.2,0,0,0-1.4.3,2.979,2.979,0,0,0-1.05.844,3.948,3.948,0,0,0-.67,1.31,5.749,5.749,0,0,0-.234,1.684v.122a5.744,5.744,0,0,0,.234,1.687,3.928,3.928,0,0,0,.669,1.3,3,3,0,0,0,1.05.841,3.2,3.2,0,0,0,1.4.3,3.346,3.346,0,0,0,1.452-.3,2.882,2.882,0,0,0,1.042-.839,3.853,3.853,0,0,0,.644-1.3,6.111,6.111,0,0,0,.221-1.689v-.122a6.118,6.118,0,0,0-.221-1.686,3.882,3.882,0,0,0-.644-1.309,2.867,2.867,0,0,0-1.042-.842A3.347,3.347,0,0,0,337.011,416.613Zm0,7.777a2.187,2.187,0,0,1-1.4-.461,2.77,2.77,0,0,1-.86-1.254,5.3,5.3,0,0,1-.284-1.805v-.134a5.228,5.228,0,0,1,.285-1.794,2.792,2.792,0,0,1,.859-1.251,2.179,2.179,0,0,1,1.4-.464,2.273,2.273,0,0,1,1.467.461,2.628,2.628,0,0,1,.828,1.252,5.744,5.744,0,0,1,.257,1.795v.134a5.883,5.883,0,0,1-.254,1.806,2.6,2.6,0,0,1-.823,1.256A2.294,2.294,0,0,1,337.011,424.39Zm0-6.815a1.842,1.842,0,0,0-1.185.387,2.455,2.455,0,0,0-.75,1.1,4.889,4.889,0,0,0-.264,1.675v.134a4.961,4.961,0,0,0,.264,1.687,2.435,2.435,0,0,0,.75,1.1,1.852,1.852,0,0,0,1.186.385,1.957,1.957,0,0,0,1.258-.382,2.256,2.256,0,0,0,.71-1.093,5.532,5.532,0,0,0,.236-1.7v-.134a5.406,5.406,0,0,0-.239-1.686,2.285,2.285,0,0,0-.717-1.091A1.937,1.937,0,0,0,337.011,417.575Z" transform="translate(-333.311 -416.266)" fill="#1a1818"/>
        </g>
        <g id="Group_7" data-name="Group 7" transform="translate(15.62)">
          <path id="Path_13" data-name="Path 13" d="M362.285,425.5a3.81,3.81,0,0,1-2.131-.559,3.447,3.447,0,0,1-1.282-1.533,5.431,5.431,0,0,1-.428-2.209v-.122a5.232,5.232,0,0,1,.449-2.218,3.622,3.622,0,0,1,1.289-1.53,3.532,3.532,0,0,1,2.005-.559,4.248,4.248,0,0,1,1.5.256,3.615,3.615,0,0,1,1.131.653v1.83h-.915l-.123-1.341a1.808,1.808,0,0,0-.428-.245,2.611,2.611,0,0,0-.536-.152,3.657,3.657,0,0,0-.638-.052,2.3,2.3,0,0,0-1.41.429,2.634,2.634,0,0,0-.875,1.181,4.7,4.7,0,0,0-.3,1.737v.134a4.687,4.687,0,0,0,.318,1.822,2.471,2.471,0,0,0,.927,1.151,2.659,2.659,0,0,0,1.484.4,3.224,3.224,0,0,0,.8-.1,2.341,2.341,0,0,0,.647-.256l.128-1.183h.9v1.842a3.983,3.983,0,0,1-1.142.464A5.631,5.631,0,0,1,362.285,425.5Z" transform="translate(-358.27 -416.592)" fill="#1a1818"/>
          <path id="Path_14" data-name="Path 14" d="M361.959,425.346a4,4,0,0,1-2.226-.588,3.64,3.64,0,0,1-1.346-1.609,5.628,5.628,0,0,1-.443-2.279v-.122a5.421,5.421,0,0,1,.465-2.291,3.809,3.809,0,0,1,1.349-1.6,3.718,3.718,0,0,1,2.1-.589,4.428,4.428,0,0,1,1.565.267,3.813,3.813,0,0,1,1.185.685l.059.052v2.082h-1.248l-.129-1.421a1.686,1.686,0,0,0-.329-.177,2.421,2.421,0,0,0-.5-.141,3.467,3.467,0,0,0-.608-.05,2.139,2.139,0,0,0-1.307.395,2.473,2.473,0,0,0-.817,1.1,4.554,4.554,0,0,0-.285,1.674v.134a4.533,4.533,0,0,0,.3,1.754,2.307,2.307,0,0,0,.862,1.073,2.5,2.5,0,0,0,1.389.368,3.075,3.075,0,0,0,.756-.094,2.349,2.349,0,0,0,.527-.195l.135-1.25h1.227v2.112l-.082.051a4.163,4.163,0,0,1-1.192.485A5.83,5.83,0,0,1,361.959,425.346Zm-.1-8.733a3.377,3.377,0,0,0-1.909.53,3.47,3.47,0,0,0-1.227,1.459,5.081,5.081,0,0,0-.433,2.146v.122a5.291,5.291,0,0,0,.414,2.14,3.3,3.3,0,0,0,1.219,1.458,3.659,3.659,0,0,0,2.035.531,5.465,5.465,0,0,0,1.328-.161,3.923,3.923,0,0,0,1.011-.393v-1.57h-.568l-.12,1.113-.073.045a2.532,2.532,0,0,1-.7.276,3.431,3.431,0,0,1-.841.1,2.843,2.843,0,0,1-1.578-.425,2.656,2.656,0,0,1-.992-1.229,4.882,4.882,0,0,1-.331-1.889v-.134a4.9,4.9,0,0,1,.309-1.8,2.812,2.812,0,0,1,.933-1.256,2.476,2.476,0,0,1,1.514-.463,3.855,3.855,0,0,1,.669.055,2.835,2.835,0,0,1,.572.162,2,2,0,0,1,.469.268l.059.047.115,1.258h.583v-1.577a3.535,3.535,0,0,0-1.019-.57A4.087,4.087,0,0,0,361.86,416.613Z" transform="translate(-357.944 -416.266)" fill="#1a1818"/>
        </g>
        <g id="Group_8" data-name="Group 8" transform="translate(23.444 0.122)">
          <path id="Path_15" data-name="Path 15" d="M380.977,425.606v-.735l.95-.163v-6.686l-.95-.164v-.74h3.049v.74l-.95.164v6.686l.95.163v.735Z" transform="translate(-380.803 -416.944)" fill="#1a1818"/>
          <path id="Path_16" data-name="Path 16" d="M383.873,425.453h-3.4V424.4l.95-.163v-6.394l-.95-.164v-1.06h3.4v1.06l-.95.164v6.394l.95.163Zm-3.049-.347h2.7v-.415l-.95-.164v-6.978l.95-.164v-.42h-2.7v.42l.95.164v6.978l-.95.164Z" transform="translate(-380.477 -416.618)" fill="#1a1818"/>
        </g>
        <g id="Group_9" data-name="Group 9" transform="translate(27.736 0.122)">
          <path id="Path_17" data-name="Path 17" d="M393.337,425.606v-.735l.95-.163v-6.686l-.95-.164v-.74h6.284v2.04H398.7L398.572,418h-3.136v2.763h3.13v.9h-3.13v3.072h3.323l.128-1.172h.915v2.035Z" transform="translate(-393.163 -416.944)" fill="#1a1818"/>
          <path id="Path_18" data-name="Path 18" d="M399.649,425.453h-6.812V424.4l.95-.163v-6.394l-.95-.164v-1.06h6.631v2.388h-1.25l-.128-1.154h-2.807v2.416h3.13v1.251h-3.13v2.725h2.993l.128-1.172h1.244Zm-6.465-.347H399.3v-1.688h-.586l-.128,1.172h-3.652v-3.419h3.13v-.556h-3.13V417.5H398.4l.129,1.154h.592v-1.693h-5.937v.42l.95.164v6.978l-.95.164Z" transform="translate(-392.837 -416.618)" fill="#1a1818"/>
        </g>
        <g id="Group_10" data-name="Group 10" transform="translate(35.852 0.122)">
          <path id="Path_19" data-name="Path 19" d="M418.716,425.606v-.735l.95-.163v-6.721h-1.924l-.169,1.177h-.863v-2.046h7.054v2.046h-.851l-.175-1.177h-1.924v6.721l.95.163v.735Z" transform="translate(-416.536 -416.944)" fill="#1a1818"/>
          <path id="Path_20" data-name="Path 20" d="M421.612,425.453h-3.4V424.4l.95-.163v-6.4h-1.6l-.169,1.177H416.21v-2.393h7.4v2.393h-1.174l-.175-1.177h-1.6v6.4l.95.163Zm-3.049-.347h2.7v-.415l-.95-.164v-7.041h2.248l.175,1.177h.527v-1.7h-6.707v1.7h.539l.169-1.177h2.248v7.041l-.95.164Z" transform="translate(-416.21 -416.618)" fill="#1a1818"/>
        </g>
        <g id="Group_11" data-name="Group 11" transform="translate(44.259 0.122)">
          <path id="Path_21" data-name="Path 21" d="M443.284,425.606v-.735l.95-.163v-2.192l-2.612-4.547-.7-.111v-.74h2.926v.74l-.968.111,1.8,3.335.122.227.006-.011.117-.216,1.889-3.335-1-.111v-.74h2.869v.74l-.74.111-2.565,4.46v2.279l.95.163v.735Z" transform="translate(-440.749 -416.944)" fill="#1a1818"/>
          <path id="Path_22" data-name="Path 22" d="M446.174,425.453h-3.39V424.4l.95-.163v-2l-2.547-4.435-.764-.121v-1.062H443.7v1.069l-.867.1,1.65,3.054,1.73-3.054-.9-.1v-1.069h3.216v1.064l-.805.12-2.5,4.347v2.087l.95.163Zm-3.043-.347h2.7v-.415l-.95-.164v-2.472l2.63-4.573.675-.1v-.417h-2.521v.411l1.11.123-2.287,4.06-.281-.5-1.923-3.56,1.069-.123v-.412H440.77v.418l.635.1,2.676,4.659v2.384l-.95.164Z" transform="translate(-440.423 -416.618)" fill="#1a1818"/>
        </g>
        <g id="Group_12" data-name="Group 12" transform="translate(56.37)">
          <path id="Path_23" data-name="Path 23" d="M479.327,425.5a3.356,3.356,0,0,1-1.475-.315,3.155,3.155,0,0,1-1.11-.889,4.084,4.084,0,0,1-.7-1.361,5.886,5.886,0,0,1-.242-1.737v-.122a5.893,5.893,0,0,1,.242-1.734,4.114,4.114,0,0,1,.7-1.367,3.139,3.139,0,0,1,1.11-.892,3.351,3.351,0,0,1,1.475-.315,3.5,3.5,0,0,1,1.527.315,3.024,3.024,0,0,1,1.1.892,4.044,4.044,0,0,1,.674,1.367,6.273,6.273,0,0,1,.227,1.734v.122a6.265,6.265,0,0,1-.227,1.737,4.014,4.014,0,0,1-.674,1.361,3.039,3.039,0,0,1-1.1.889A3.5,3.5,0,0,1,479.327,425.5Zm0-.956a2.115,2.115,0,0,0,1.367-.42,2.419,2.419,0,0,0,.766-1.175,5.685,5.685,0,0,0,.245-1.752v-.134a5.563,5.563,0,0,0-.248-1.74,2.447,2.447,0,0,0-.773-1.172,2.1,2.1,0,0,0-1.358-.423,2,2,0,0,0-1.294.426,2.608,2.608,0,0,0-.8,1.175,5.035,5.035,0,0,0-.274,1.734v.134a5.1,5.1,0,0,0,.274,1.746,2.588,2.588,0,0,0,.8,1.177A2.01,2.01,0,0,0,479.327,424.543Z" transform="translate(-475.626 -416.592)" fill="#1a1818"/>
          <path id="Path_24" data-name="Path 24" d="M479,425.346a3.538,3.538,0,0,1-1.55-.332,3.341,3.341,0,0,1-1.171-.937,4.277,4.277,0,0,1-.73-1.418,6.08,6.08,0,0,1-.25-1.789v-.122a6.1,6.1,0,0,1,.249-1.785,4.293,4.293,0,0,1,.73-1.424,3.324,3.324,0,0,1,1.171-.941,3.537,3.537,0,0,1,1.55-.332,3.69,3.69,0,0,1,1.6.332,3.211,3.211,0,0,1,1.167.943,4.234,4.234,0,0,1,.7,1.425,6.472,6.472,0,0,1,.234,1.783v.122a6.464,6.464,0,0,1-.234,1.785,4.218,4.218,0,0,1-.7,1.419,3.237,3.237,0,0,1-1.167.939A3.691,3.691,0,0,1,479,425.346Zm0-8.733a3.2,3.2,0,0,0-1.4.3,2.982,2.982,0,0,0-1.05.844,3.952,3.952,0,0,0-.669,1.31,5.736,5.736,0,0,0-.234,1.684v.122a5.742,5.742,0,0,0,.234,1.687,3.937,3.937,0,0,0,.669,1.3,3,3,0,0,0,1.05.841,3.2,3.2,0,0,0,1.4.3,3.348,3.348,0,0,0,1.452-.3,2.886,2.886,0,0,0,1.043-.839,3.868,3.868,0,0,0,.643-1.3,6.12,6.12,0,0,0,.22-1.689v-.122a6.13,6.13,0,0,0-.22-1.687,3.894,3.894,0,0,0-.644-1.308,2.87,2.87,0,0,0-1.042-.842A3.349,3.349,0,0,0,479,416.613Zm0,7.777a2.187,2.187,0,0,1-1.4-.461,2.77,2.77,0,0,1-.86-1.254,5.294,5.294,0,0,1-.284-1.805v-.134a5.228,5.228,0,0,1,.284-1.794,2.793,2.793,0,0,1,.859-1.251,2.178,2.178,0,0,1,1.4-.464,2.276,2.276,0,0,1,1.467.461,2.627,2.627,0,0,1,.828,1.252,5.744,5.744,0,0,1,.257,1.795v.134a5.867,5.867,0,0,1-.254,1.806,2.6,2.6,0,0,1-.823,1.256A2.3,2.3,0,0,1,479,424.39Zm0-6.815a1.817,1.817,0,0,0-1.185.387,2.453,2.453,0,0,0-.75,1.1,4.881,4.881,0,0,0-.264,1.675v.134a4.953,4.953,0,0,0,.264,1.687,2.433,2.433,0,0,0,.75,1.1,1.849,1.849,0,0,0,1.186.385,1.957,1.957,0,0,0,1.258-.382,2.261,2.261,0,0,0,.71-1.093,5.53,5.53,0,0,0,.237-1.7v-.134a5.418,5.418,0,0,0-.239-1.686,2.292,2.292,0,0,0-.716-1.09A1.939,1.939,0,0,0,479,417.575Z" transform="translate(-475.3 -416.266)" fill="#1a1818"/>
        </g>
        <g id="Group_13" data-name="Group 13" transform="translate(64.608 0.122)">
          <path id="Path_25" data-name="Path 25" d="M499.525,425.606v-.735l.95-.163v-6.686l-.95-.164v-.74h6.383v2.04h-.921l-.128-1.148h-3.236v2.938h3.107v.9h-3.107v2.856l.95.163v.735Z" transform="translate(-499.351 -416.944)" fill="#1a1818"/>
          <path id="Path_26" data-name="Path 26" d="M502.421,425.453h-3.4V424.4l.95-.163v-6.394l-.95-.164v-1.06h6.731v2.388h-1.25l-.128-1.148h-2.906v2.591h3.107V421.7h-3.107v2.537l.95.163Zm-3.049-.347h2.7v-.415l-.95-.164v-3.176h3.107V420.8h-3.107V417.51h3.564l.128,1.148h.592v-1.693h-6.036v.42l.95.164v6.978l-.95.164Z" transform="translate(-499.025 -416.618)" fill="#1a1818"/>
        </g>
        <g id="Group_14" data-name="Group 14" transform="translate(75.494 0.122)">
          <path id="Path_27" data-name="Path 27" d="M530.877,425.606v-.735l.95-.163v-6.686l-.95-.164v-.74h6.284v2.04h-.921L536.112,418h-3.137v2.763h3.131v.9h-3.131v3.072H536.3l.128-1.172h.915v2.035Z" transform="translate(-530.703 -416.944)" fill="#1a1818"/>
          <path id="Path_28" data-name="Path 28" d="M537.189,425.453h-6.812V424.4l.95-.163v-6.394l-.95-.164v-1.06h6.631v2.388h-1.25l-.128-1.154h-2.808v2.416h3.131v1.251h-3.131v2.725h2.994l.128-1.172h1.244Zm-6.465-.347h6.117v-1.688h-.586l-.128,1.172h-3.652v-3.419h3.131v-.556h-3.131V417.5h3.465l.128,1.154h.592v-1.693h-5.937v.42l.95.164v6.978l-.95.164Z" transform="translate(-530.377 -416.618)" fill="#1a1818"/>
        </g>
        <g id="Group_15" data-name="Group 15" transform="translate(83.61 0.122)">
          <path id="Path_29" data-name="Path 29" d="M556.255,425.606v-.735l.95-.163v-6.721h-1.924l-.169,1.177h-.863v-2.046H561.3v2.046h-.851l-.175-1.177h-1.924v6.721l.95.163v.735Z" transform="translate(-554.076 -416.944)" fill="#1a1818"/>
          <path id="Path_30" data-name="Path 30" d="M559.152,425.453h-3.4V424.4l.95-.163v-6.4h-1.6l-.169,1.177H553.75v-2.393h7.4v2.393h-1.174l-.175-1.177h-1.6v6.4l.95.163Zm-3.049-.347h2.7v-.415l-.95-.164v-7.041H560.1l.175,1.177h.527v-1.7H554.1v1.7h.539l.169-1.177h2.248v7.041l-.95.164Z" transform="translate(-553.75 -416.618)" fill="#1a1818"/>
        </g>
        <g id="Group_16" data-name="Group 16" transform="translate(92.017 0.122)">
          <path id="Path_31" data-name="Path 31" d="M578.463,425.606v-.735l.95-.163v-6.686l-.95-.164v-.74h3.048v.74l-.95.164v2.932h4.057v-2.932l-.95-.164v-.74h3.049v.74l-.95.164v6.686l.95.163v.735h-3.049v-.735l.95-.163v-2.85h-4.057v2.85l.95.163v.735Z" transform="translate(-578.289 -416.944)" fill="#1a1818"/>
          <path id="Path_32" data-name="Path 32" d="M586.565,425.453h-3.4V424.4l.95-.163V421.7h-3.71v2.531l.95.163v1.055h-3.4V424.4l.95-.163v-6.394l-.95-.164v-1.06h3.4v1.06l-.95.164v2.612h3.71v-2.612l-.95-.164v-1.06h3.4v1.06l-.95.164v6.394l.95.163Zm-3.049-.347h2.7v-.415l-.95-.164v-6.978l.95-.164v-.42h-2.7v.42l.95.164V420.8h-4.4v-3.252l.95-.164v-.42h-2.7v.42l.95.164v6.978l-.95.164v.415h2.7v-.415l-.95-.164v-3.17h4.4v3.17l-.95.164Z" transform="translate(-577.963 -416.618)" fill="#1a1818"/>
        </g>
        <g id="Group_17" data-name="Group 17" transform="translate(101.515 0.122)">
          <path id="Path_33" data-name="Path 33" d="M605.814,425.606v-.735l.951-.163v-6.686l-.951-.164v-.74h3.049v.74l-.95.164v6.686l.95.163v.735Z" transform="translate(-605.64 -416.944)" fill="#1a1818"/>
          <path id="Path_34" data-name="Path 34" d="M608.711,425.453h-3.4V424.4l.951-.163v-6.394l-.951-.164v-1.06h3.4v1.06l-.95.164v6.394l.95.163Zm-3.049-.347h2.7v-.415l-.95-.164v-6.978l.95-.164v-.42h-2.7v.42l.951.164v6.978l-.951.164Z" transform="translate(-605.314 -416.618)" fill="#1a1818"/>
        </g>
        <g id="Group_18" data-name="Group 18" transform="translate(105.742)">
          <path id="Path_35" data-name="Path 35" d="M621.516,425.5a3.354,3.354,0,0,1-1.475-.315,3.163,3.163,0,0,1-1.11-.889,4.07,4.07,0,0,1-.7-1.361,5.885,5.885,0,0,1-.242-1.737v-.122a5.893,5.893,0,0,1,.242-1.734,4.1,4.1,0,0,1,.7-1.367,3.147,3.147,0,0,1,1.11-.892,3.349,3.349,0,0,1,1.475-.315,3.5,3.5,0,0,1,1.528.315,3.02,3.02,0,0,1,1.1.892,4.039,4.039,0,0,1,.673,1.367,6.249,6.249,0,0,1,.227,1.734v.122a6.241,6.241,0,0,1-.227,1.737,4.009,4.009,0,0,1-.673,1.361,3.035,3.035,0,0,1-1.1.889A3.505,3.505,0,0,1,621.516,425.5Zm0-.956a2.115,2.115,0,0,0,1.367-.42,2.416,2.416,0,0,0,.766-1.175,5.681,5.681,0,0,0,.245-1.752v-.134a5.547,5.547,0,0,0-.247-1.74,2.445,2.445,0,0,0-.772-1.172,2.1,2.1,0,0,0-1.359-.423,2,2,0,0,0-1.294.426,2.606,2.606,0,0,0-.8,1.175,5.018,5.018,0,0,0-.274,1.734v.134a5.088,5.088,0,0,0,.274,1.746,2.586,2.586,0,0,0,.8,1.177A2.01,2.01,0,0,0,621.516,424.543Z" transform="translate(-617.816 -416.592)" fill="#1a1818"/>
          <path id="Path_36" data-name="Path 36" d="M621.19,425.346a3.533,3.533,0,0,1-1.55-.332,3.338,3.338,0,0,1-1.171-.937,4.264,4.264,0,0,1-.73-1.418,6.076,6.076,0,0,1-.25-1.788v-.122a6.094,6.094,0,0,1,.249-1.785,4.293,4.293,0,0,1,.73-1.424,3.323,3.323,0,0,1,1.171-.941,3.533,3.533,0,0,1,1.55-.332,3.689,3.689,0,0,1,1.6.332,3.2,3.2,0,0,1,1.167.943,4.218,4.218,0,0,1,.7,1.425,6.454,6.454,0,0,1,.234,1.783v.122a6.446,6.446,0,0,1-.234,1.785,4.2,4.2,0,0,1-.7,1.419,3.225,3.225,0,0,1-1.167.939A3.689,3.689,0,0,1,621.19,425.346Zm0-8.733a3.2,3.2,0,0,0-1.4.3,2.987,2.987,0,0,0-1.05.844,3.948,3.948,0,0,0-.669,1.31,5.746,5.746,0,0,0-.234,1.684v.122a5.755,5.755,0,0,0,.234,1.687,3.928,3.928,0,0,0,.669,1.3,3.006,3.006,0,0,0,1.05.841,3.2,3.2,0,0,0,1.4.3,3.345,3.345,0,0,0,1.452-.3,2.874,2.874,0,0,0,1.042-.839,3.845,3.845,0,0,0,.644-1.3,6.117,6.117,0,0,0,.22-1.689v-.122a6.124,6.124,0,0,0-.22-1.686,3.874,3.874,0,0,0-.644-1.309,2.862,2.862,0,0,0-1.042-.842A3.346,3.346,0,0,0,621.19,416.613Zm0,7.777a2.187,2.187,0,0,1-1.4-.461,2.768,2.768,0,0,1-.859-1.254,5.286,5.286,0,0,1-.285-1.8v-.134a5.219,5.219,0,0,1,.285-1.794,2.791,2.791,0,0,1,.859-1.251,2.178,2.178,0,0,1,1.4-.464,2.275,2.275,0,0,1,1.467.461,2.628,2.628,0,0,1,.829,1.252,5.743,5.743,0,0,1,.256,1.795v.134a5.879,5.879,0,0,1-.253,1.806,2.6,2.6,0,0,1-.823,1.256A2.293,2.293,0,0,1,621.19,424.39Zm0-6.815a1.84,1.84,0,0,0-1.185.387,2.453,2.453,0,0,0-.75,1.1,4.875,4.875,0,0,0-.264,1.675v.134a4.945,4.945,0,0,0,.264,1.687,2.434,2.434,0,0,0,.749,1.1,1.852,1.852,0,0,0,1.186.385,1.958,1.958,0,0,0,1.259-.382,2.253,2.253,0,0,0,.71-1.093,5.517,5.517,0,0,0,.236-1.7v-.134a5.407,5.407,0,0,0-.238-1.686,2.289,2.289,0,0,0-.717-1.091A1.938,1.938,0,0,0,621.19,417.575Z" transform="translate(-617.49 -416.266)" fill="#1a1818"/>
        </g>
        <g id="Group_19" data-name="Group 19" transform="translate(113.981 0.122)">
          <path id="Path_37" data-name="Path 37" d="M641.716,425.606v-.735l.95-.163v-6.686l-.95-.164v-.74h3.9a3.464,3.464,0,0,1,1.551.318,2.285,2.285,0,0,1,.98.889,2.818,2.818,0,0,1,0,2.676,2.268,2.268,0,0,1-.98.886,3.492,3.492,0,0,1-1.551.315h-1.8v2.507l.95.163v.735Zm2.1-4.3h1.8a1.674,1.674,0,0,0,1.291-.464,1.656,1.656,0,0,0,.428-1.169,1.688,1.688,0,0,0-.428-1.178,1.658,1.658,0,0,0-1.291-.472h-1.8Z" transform="translate(-641.542 -416.944)" fill="#1a1818"/>
          <path id="Path_38" data-name="Path 38" d="M644.612,425.453h-3.4V424.4l.95-.163v-6.394l-.95-.164v-1.06h4.073a3.646,3.646,0,0,1,1.628.336,2.465,2.465,0,0,1,1.052.956,2.991,2.991,0,0,1,0,2.853,2.455,2.455,0,0,1-1.052.954,3.681,3.681,0,0,1-1.627.332h-1.628v2.187l.95.163Zm-3.049-.347h2.7v-.415l-.95-.164V421.7h1.975a3.332,3.332,0,0,0,1.474-.3,2.107,2.107,0,0,0,.907-.818,2.647,2.647,0,0,0,0-2.5,2.125,2.125,0,0,0-.907-.822,3.309,3.309,0,0,0-1.474-.3h-3.726v.42l.95.164v6.978l-.95.164Zm3.726-3.955h-1.975v-3.629h1.975a1.828,1.828,0,0,1,1.42.529,1.865,1.865,0,0,1,.474,1.294,1.717,1.717,0,0,1-1.893,1.806Zm-1.628-.347h1.628a1.519,1.519,0,0,0,1.164-.408,1.475,1.475,0,0,0,.382-1.051,1.385,1.385,0,0,0-1.546-1.476h-1.628Z" transform="translate(-641.216 -416.618)" fill="#1a1818"/>
        </g>
        <g id="Group_20" data-name="Group 20" transform="translate(121.84 0.122)">
          <path id="Path_39" data-name="Path 39" d="M664.35,425.606v-.735l.95-.163v-6.686l-.95-.164v-.74H667.4v.74l-.95.164v6.686l.95.163v.735Z" transform="translate(-664.176 -416.944)" fill="#1a1818"/>
          <path id="Path_40" data-name="Path 40" d="M667.246,425.453h-3.4V424.4l.95-.163v-6.394l-.95-.164v-1.06h3.4v1.06l-.95.164v6.394l.95.163Zm-3.049-.347h2.7v-.415l-.95-.164v-6.978l.95-.164v-.42h-2.7v.42l.95.164v6.978l-.95.164Z" transform="translate(-663.85 -416.618)" fill="#1a1818"/>
        </g>
        <g id="Group_21" data-name="Group 21" transform="translate(126.068 0.122)">
          <path id="Path_41" data-name="Path 41" d="M676.525,425.606v-.735l.63-.088,2.967-7.666h.985l2.915,7.666.624.088v.735h-2.436v-.735l.641-.111-.56-1.562h-3.4l-.577,1.562.641.111v.735Zm2.722-3.37h2.693l-1.248-3.451-.07-.193h-.035l-.07.193Z" transform="translate(-676.351 -416.944)" fill="#1a1818"/>
          <path id="Path_42" data-name="Path 42" d="M684.493,425.453h-2.784V424.4l.582-.1-.449-1.252h-3.155l-.463,1.253.58.1v1.055h-2.778v-1.059l.678-.094,2.973-7.681H680.9l2.921,7.682.672.094Zm-2.436-.347h2.089v-.41l-.576-.081-2.909-7.65h-.746l-2.962,7.65-.581.081v.41h2.084v-.415l-.7-.121.691-1.872h3.641l.671,1.872-.7.121Zm-.195-3.023h-3.19l1.468-3.991h.279Zm-2.692-.347h2.2l-1.088-3.011Z" transform="translate(-676.025 -416.618)" fill="#1a1818"/>
        </g>
      </g>
      <text id="Representing_Creative_Souls" data-name="Representing Creative Souls" transform="translate(0 21.08)" font-size="9" font-family="Roboto-Regular, Roboto" letter-spacing="0.16em"><tspan x="0" y="0">representing creative souls</tspan></text>
    </g>
    <g id="Group_397" data-name="Group 397" transform="translate(26.568)">
      <g id="Group_1" data-name="Group 1">
        <path id="Path_1" data-name="Path 1" d="M206.521,439.064a9.727,9.727,0,0,1-5.44-1.428,8.81,8.81,0,0,1-3.275-3.915,13.881,13.881,0,0,1-1.094-5.642v-.312a13.347,13.347,0,0,1,1.146-5.665,9.255,9.255,0,0,1,3.289-3.907,9.021,9.021,0,0,1,5.121-1.428,10.838,10.838,0,0,1,3.84.654A9.23,9.23,0,0,1,213,419.088v4.673h-2.337l-.312-3.423a4.63,4.63,0,0,0-1.094-.625,6.706,6.706,0,0,0-1.37-.387,9.354,9.354,0,0,0-1.63-.134,5.871,5.871,0,0,0-3.6,1.094,6.724,6.724,0,0,0-2.233,3.015,12,12,0,0,0-.759,4.436v.342a11.97,11.97,0,0,0,.81,4.651,6.312,6.312,0,0,0,2.367,2.94,6.789,6.789,0,0,0,3.789,1.013,8.23,8.23,0,0,0,2.038-.254,5.984,5.984,0,0,0,1.653-.654l.327-3.022h2.293v4.7a10.188,10.188,0,0,1-2.918,1.184A14.366,14.366,0,0,1,206.521,439.064Z" transform="translate(-196.268 -416.323)" fill="#1a1818"/>
        <path id="Path_2" data-name="Path 2" d="M206.464,439.451a10.2,10.2,0,0,1-5.683-1.5,9.281,9.281,0,0,1-3.437-4.108,14.368,14.368,0,0,1-1.132-5.82v-.312a13.857,13.857,0,0,1,1.187-5.851,9.729,9.729,0,0,1,3.446-4.09,9.492,9.492,0,0,1,5.367-1.5,11.31,11.31,0,0,1,4,.683,9.723,9.723,0,0,1,3.025,1.75l.15.132v5.317H210.2l-.332-3.629a4.261,4.261,0,0,0-.839-.452,6.193,6.193,0,0,0-1.279-.361,8.856,8.856,0,0,0-1.552-.128,5.464,5.464,0,0,0-3.338,1.007,6.324,6.324,0,0,0-2.085,2.82,11.648,11.648,0,0,0-.727,4.274v.342a11.591,11.591,0,0,0,.776,4.479,5.9,5.9,0,0,0,2.2,2.74,6.392,6.392,0,0,0,3.547.941,7.845,7.845,0,0,0,1.929-.239,5.989,5.989,0,0,0,1.345-.5l.347-3.193h3.133v5.392l-.209.13a10.641,10.641,0,0,1-3.044,1.238A14.888,14.888,0,0,1,206.464,439.451Zm-.253-22.3a8.619,8.619,0,0,0-4.875,1.354,8.855,8.855,0,0,0-3.133,3.725,12.973,12.973,0,0,0-1.106,5.478v.312a13.5,13.5,0,0,0,1.057,5.463,8.422,8.422,0,0,0,3.112,3.723,9.346,9.346,0,0,0,5.2,1.356,13.965,13.965,0,0,0,3.39-.411,10.021,10.021,0,0,0,2.582-1v-4.009h-1.451l-.308,2.843-.186.114a6.454,6.454,0,0,1-1.775.706,8.748,8.748,0,0,1-2.147.267,7.259,7.259,0,0,1-4.031-1.084A6.785,6.785,0,0,1,200,432.846a12.466,12.466,0,0,1-.845-4.824v-.342a12.49,12.49,0,0,1,.79-4.6,7.188,7.188,0,0,1,2.381-3.207,6.326,6.326,0,0,1,3.867-1.182,9.826,9.826,0,0,1,1.707.141,7.194,7.194,0,0,1,1.46.413,5.1,5.1,0,0,1,1.2.685l.152.119.293,3.211H212.5v-4.026a9.014,9.014,0,0,0-2.6-1.457A10.442,10.442,0,0,0,206.211,417.153Z" transform="translate(-196.211 -416.266)" fill="#1a1818"/>
      </g>
      <g id="Group_2" data-name="Group 2" transform="translate(20.009 0.312)">
        <path id="Path_3" data-name="Path 3" d="M219.279,438.792v-1.876l2.426-.417V419.426l-2.426-.418v-1.89h5.388L235.3,434.013l.09-.029V419.426l-2.664-.418v-1.89H240.5v1.89l-2.426.418v19.366H235.4l-10.911-16.985-.09.03V436.5l2.664.417v1.876Z" transform="translate(-218.836 -416.675)" fill="#1a1818"/>
        <path id="Path_4" data-name="Path 4" d="M238.466,439.178H235.1l-10.315-16.057v12.941l2.664.418v2.7h-8.671v-2.693l2.426-.417V419.742l-2.426-.418v-2.707h6.077l10.029,15.942V419.748l-2.664-.417v-2.713h8.671v2.707l-2.426.418Zm-2.881-.887h1.994V419l2.426-.418V417.5h-6.9v1.068l2.664.418v15.257l-.723.239L224.366,417.5h-4.7v1.074l2.426.418v17.819l-2.426.418v1.06h6.9v-1.053l-2.664-.418V421.463l.718-.244Z" transform="translate(-218.779 -416.618)" fill="#1a1818"/>
      </g>
      <g id="Group_3" data-name="Group 3" transform="translate(44.424)">
        <path id="Path_5" data-name="Path 5" d="M256.625,439.064a9.727,9.727,0,0,1-5.44-1.428,8.81,8.81,0,0,1-3.275-3.915,13.88,13.88,0,0,1-1.094-5.642v-.312a13.349,13.349,0,0,1,1.146-5.665,9.255,9.255,0,0,1,3.289-3.907,9.021,9.021,0,0,1,5.121-1.428,10.838,10.838,0,0,1,3.84.654,9.23,9.23,0,0,1,2.888,1.668v4.673h-2.337l-.312-3.423a4.63,4.63,0,0,0-1.094-.625,6.709,6.709,0,0,0-1.37-.387,9.355,9.355,0,0,0-1.63-.134,5.871,5.871,0,0,0-3.6,1.094,6.723,6.723,0,0,0-2.233,3.015,12,12,0,0,0-.759,4.436v.342a11.969,11.969,0,0,0,.81,4.651,6.312,6.312,0,0,0,2.367,2.94,6.789,6.789,0,0,0,3.789,1.013,8.23,8.23,0,0,0,2.038-.254,5.985,5.985,0,0,0,1.653-.654l.327-3.022h2.293v4.7a10.19,10.19,0,0,1-2.918,1.184A14.367,14.367,0,0,1,256.625,439.064Z" transform="translate(-246.372 -416.323)" fill="#1a1818"/>
        <path id="Path_6" data-name="Path 6" d="M256.568,439.451a10.2,10.2,0,0,1-5.683-1.5,9.282,9.282,0,0,1-3.437-4.108,14.369,14.369,0,0,1-1.132-5.82v-.312a13.857,13.857,0,0,1,1.187-5.851,9.729,9.729,0,0,1,3.446-4.09,9.492,9.492,0,0,1,5.367-1.5,11.31,11.31,0,0,1,4,.683,9.723,9.723,0,0,1,3.025,1.75l.15.132v5.317H260.3l-.332-3.629a4.26,4.26,0,0,0-.839-.452,6.19,6.19,0,0,0-1.279-.361,8.855,8.855,0,0,0-1.552-.128,5.464,5.464,0,0,0-3.338,1.007,6.323,6.323,0,0,0-2.085,2.82,11.647,11.647,0,0,0-.727,4.274v.342a11.592,11.592,0,0,0,.776,4.479,5.9,5.9,0,0,0,2.2,2.74,6.392,6.392,0,0,0,3.547.941,7.845,7.845,0,0,0,1.929-.239,5.989,5.989,0,0,0,1.345-.5l.347-3.193h3.133v5.392l-.209.13a10.64,10.64,0,0,1-3.044,1.238A14.89,14.89,0,0,1,256.568,439.451Zm-.253-22.3a8.62,8.62,0,0,0-4.875,1.354,8.855,8.855,0,0,0-3.133,3.725,12.973,12.973,0,0,0-1.106,5.478v.312a13.5,13.5,0,0,0,1.057,5.463,8.422,8.422,0,0,0,3.112,3.723,9.346,9.346,0,0,0,5.2,1.356,13.965,13.965,0,0,0,3.391-.411,10.021,10.021,0,0,0,2.582-1v-4.009h-1.451l-.308,2.843-.186.114a6.454,6.454,0,0,1-1.775.706,8.749,8.749,0,0,1-2.147.267,7.259,7.259,0,0,1-4.031-1.084,6.784,6.784,0,0,1-2.534-3.139,12.465,12.465,0,0,1-.845-4.824v-.342a12.49,12.49,0,0,1,.79-4.6,7.187,7.187,0,0,1,2.381-3.207,6.326,6.326,0,0,1,3.867-1.182,9.827,9.827,0,0,1,1.707.141,7.2,7.2,0,0,1,1.46.413,5.1,5.1,0,0,1,1.2.685l.152.119.293,3.211H262.6v-4.026a9.014,9.014,0,0,0-2.6-1.457A10.44,10.44,0,0,0,256.315,417.153Z" transform="translate(-246.315 -416.266)" fill="#1a1818"/>
      </g>
      <g id="Group_4" data-name="Group 4" transform="translate(64.596 0.312)">
        <path id="Path_7" data-name="Path 7" d="M269.567,438.792v-1.876l2.427-.417V419.426l-2.427-.418v-1.89h6.341l6.981,16.449h.09l6.758-16.449h6.535v1.89l-2.427.418V436.5l2.427.417v1.876h-7.786v-1.876l2.56-.417V421.123l-.074-.016-7.04,16.91h-1.951l-7.279-16.88-.075.015.1,9.066V436.5l2.62.417v1.876Z" transform="translate(-269.124 -416.675)" fill="#1a1818"/>
        <path id="Path_8" data-name="Path 8" d="M296.659,439.178h-8.672v-2.7l2.56-.417V423.089L284.171,438.4h-2.538l-6.595-15.294.081,7.047v5.908l2.62.418v2.7h-8.672v-2.693l2.427-.417V419.742l-2.427-.418v-2.707h7.078l6.727,15.848,6.512-15.848h7.276v2.707l-2.427.418v16.327l2.427.417Zm-7.786-.887h6.9v-1.06l-2.427-.418V419l2.427-.418V417.5h-5.795l-6.758,16.449h-.68L275.558,417.5h-5.6v1.074l2.427.418v17.819l-2.427.418v1.06h6.9v-1.054l-2.62-.418v-6.659l-.108-9.429.713-.14.215.313,7.164,16.612h1.363l7.068-16.976.711.149.074.376v15.752l-2.56.418Z" transform="translate(-269.067 -416.618)" fill="#1a1818"/>
      </g>
    </g>
  </g>
  <g id="Group_51120" data-name="Group 51120">
    <g id="Group_47" data-name="Group 47" transform="translate(0 1.657)">
      <g id="Group_45" data-name="Group 45" transform="translate(0.365 0.489)">
        <path id="Path_61" data-name="Path 61" d="M117.529,92.972q-.732.668-1.489,1.3-.827.708-1.679,1.378c-.567.451-1.144.885-1.727,1.308-.647.477-1.3.938-1.966,1.394-.551.371-1.113.737-1.679,1.086-.567-.349-1.123-.715-1.674-1.086-.667-.45-1.324-.911-1.97-1.394q-.874-.635-1.722-1.3t-1.685-1.383c-.5-.419-1-.853-1.484-1.293-.567-.509-1.129-1.034-1.674-1.568-.424-.408-.842-.821-1.245-1.245-.578-.588-1.14-1.182-1.68-1.791-.354-.387-.7-.784-1.039-1.181q-.842-.978-1.647-2c-.291-.377-.583-.753-.864-1.134q-.81-1.073-1.568-2.188c-.254-.366-.5-.737-.742-1.108-.5-.762-.99-1.541-1.452-2.331-.228-.376-.445-.752-.657-1.134-.456-.795-.885-1.6-1.3-2.416q-.3-.588-.588-1.192c-.392-.811-.768-1.627-1.118-2.459-.191-.434-.371-.869-.546-1.3-.322-.805-.63-1.615-.916-2.437-.175-.488-.345-.986-.5-1.484q-.382-1.168-.715-2.352c-.159-.561-.313-1.129-.451-1.7-.191-.742-.36-1.483-.519-2.236q-.207-.961-.381-1.939c-.127-.716-.244-1.436-.345-2.157s-.2-1.42-.27-2.141c-.09-.795-.159-1.6-.212-2.405-.048-.662-.085-1.33-.106-2-.032-.779-.048-1.568-.048-2.357,0-.721.011-1.437.043-2.151.429-.212.864-.419,1.3-.62q1.391-.644,2.814-1.224c.291-.117.588-.233.885-.349q1.613-.636,3.274-1.182c.175-.058.349-.111.524-.17q1.812-.58,3.666-1.06c.016-.154.037-.3.064-.455q.286-2.027.742-4c-.89.207-1.769.429-2.644.662-.566.154-1.134.319-1.695.488-.821.238-1.632.5-2.438.774-.63.212-1.261.434-1.881.662q-1.144.43-2.267.89-1.009.413-2,.858c-.832.371-1.658.763-2.474,1.166-.588.291-1.171.593-1.754.9q-.168,2.384-.17,4.811v.01q0,2.321.159,4.6c.032.472.069.943.117,1.415q.135,1.55.345,3.072c.043.307.085.609.133.917q.262,1.749.619,3.465c.032.169.069.333.107.5.27,1.261.577,2.511.916,3.741.022.064.037.127.053.191.371,1.308.774,2.6,1.219,3.878l.085-.016a.7.7,0,0,0-.069.059c.445,1.271.927,2.532,1.446,3.772.027.069.059.138.085.206q.764,1.8,1.621,3.534c.048.1.1.2.143.291q.859,1.709,1.807,3.359c.059.1.117.2.18.3.641,1.108,1.314,2.188,2.018,3.253.058.09.117.175.18.265Q88.1,85.167,89.28,86.72c.037.053.08.111.122.164q1.233,1.613,2.559,3.147a.173.173,0,0,0,.048-.021c-.011.011-.021.027-.032.037.879,1.028,1.8,2.024,2.75,2.993.05.056.1.109.159.159.89.916,1.812,1.8,2.755,2.654.138.122.27.239.4.361.869.773,1.759,1.525,2.665,2.246.244.2.493.4.742.588.811.635,1.637,1.245,2.474,1.839.387.275.779.545,1.171.81q1.9,1.28,3.894,2.437,1.995-1.152,3.895-2.437c.4-.27.789-.54,1.181-.816q1.255-.89,2.464-1.833c.249-.191.5-.387.747-.593q1.359-1.081,2.659-2.241c.138-.122.27-.244.408-.366.938-.853,1.86-1.738,2.75-2.649q-1.994-.81-3.894-1.791Q118.38,92.211,117.529,92.972Z" transform="translate(-75.854 -35.518)" fill="#4cc21d"/>
      </g>
      <g id="Group_46" data-name="Group 46">
        <path id="Path_62" data-name="Path 62" d="M108.694,104.162l-.183-.106c-1.294-.747-2.611-1.572-3.915-2.45-.434-.293-.82-.56-1.179-.816-.915-.649-1.729-1.253-2.488-1.849-.276-.212-.523-.407-.749-.594-.879-.7-1.782-1.46-2.675-2.255-.119-.11-.234-.212-.353-.317l-.049-.043c-1.037-.944-1.944-1.818-2.775-2.673a2.308,2.308,0,0,1-.169-.169c-.978-1-1.858-1.955-2.678-2.91l-.093-.105c-.885-1.022-1.75-2.087-2.573-3.165-.042-.051-.088-.117-.131-.176-.758-.992-1.524-2.065-2.267-3.181-.061-.086-.122-.175-.183-.269-.719-1.087-1.4-2.188-2.028-3.268-.055-.086-.112-.185-.169-.283-.666-1.163-1.276-2.3-1.828-3.4l-.143-.292c-.579-1.174-1.127-2.37-1.631-3.555-.016-.042-.029-.072-.042-.1s-.033-.077-.048-.116c-.474-1.132-.932-2.319-1.36-3.525h0l-.105-.3c-.432-1.241-.833-2.517-1.225-3.9-.017-.066-.03-.121-.048-.175-.35-1.265-.66-2.53-.927-3.78l-.014-.064c-.033-.15-.065-.3-.093-.448-.238-1.141-.447-2.314-.622-3.478-.048-.307-.091-.612-.133-.921-.145-1.072-.258-2.082-.346-3.091-.043-.424-.081-.89-.117-1.422-.106-1.521-.159-3.077-.159-4.623,0-1.6.057-3.232.17-4.847l.015-.2.18-.1c.686-.362,1.246-.649,1.762-.905.889-.438,1.7-.821,2.488-1.172.66-.3,1.337-.586,2.013-.863.725-.3,1.492-.6,2.278-.894.641-.236,1.277-.46,1.893-.666.862-.3,1.665-.55,2.451-.779.612-.185,1.17-.345,1.7-.489.952-.254,1.82-.471,2.657-.666l.57-.132-.131.571c-.3,1.315-.55,2.651-.736,3.969-.027.156-.047.3-.062.442l-.026.253-.247.064c-1.2.309-2.428.664-3.646,1.053-.086.029-.178.058-.268.087L88,41.154c-1.123.371-2.219.766-3.256,1.175l-.086.034c-.267.105-.534.21-.8.315-.937.382-1.879.792-2.8,1.216-.393.182-.753.354-1.095.52-.023.581-.033,1.2-.033,1.919,0,.786.016,1.574.048,2.343.02.632.054,1.28.105,1.986.055.841.126,1.645.211,2.39.074.716.161,1.41.268,2.128.1.687.208,1.387.343,2.146.116.646.243,1.295.379,1.927.172.813.341,1.54.516,2.221.122.5.264,1.037.448,1.687.221.782.46,1.568.711,2.339.155.486.324.981.5,1.473.272.779.569,1.571.912,2.425.194.482.371.9.541,1.292.317.754.68,1.552,1.113,2.446.189.4.385.8.584,1.185.442.872.863,1.657,1.29,2.4.223.4.435.768.652,1.126.442.756.927,1.535,1.444,2.319.231.359.479.729.737,1.1.5.731,1.02,1.462,1.56,2.177.281.382.576.763.861,1.13.527.667,1.078,1.336,1.636,1.983.3.352.656.766,1.031,1.173.5.56,1.042,1.141,1.671,1.782.356.373.747.765,1.238,1.238.525.515,1.085,1.039,1.665,1.559s1.035.92,1.473,1.284c.547.468,1.11.931,1.677,1.376.587.461,1.147.885,1.711,1.3.6.448,1.24.9,1.96,1.386.56.377,1.034.686,1.47.958.469-.293.954-.607,1.475-.958.687-.469,1.326-.922,1.953-1.384s1.2-.89,1.717-1.3c.559-.439,1.12-.9,1.67-1.369.5-.415,1-.848,1.48-1.291l0,0c.578-.519,1.136-1.041,1.658-1.551l.189-.185.234.121c1.268.652,2.568,1.25,3.864,1.777l.5.205-.38.389c-.864.885-1.794,1.781-2.765,2.664-.074.065-.142.127-.21.188l-.2.181c-.885.789-1.786,1.547-2.674,2.253-.223.185-.464.376-.753.6-.775.607-1.609,1.227-2.474,1.841-.395.277-.789.549-1.188.82-1.306.88-2.624,1.705-3.916,2.451ZM91.959,89.414c.832.972,1.726,1.945,2.733,2.976.05.055.095.1.144.144.837.86,1.733,1.724,2.755,2.654l.045.039c.122.108.241.213.359.322.88.783,1.771,1.533,2.645,2.229.225.185.464.375.737.584.753.591,1.558,1.188,2.464,1.83.354.253.735.516,1.164.806,1.228.827,2.469,1.606,3.689,2.318,1.219-.71,2.459-1.49,3.69-2.318.395-.269.785-.538,1.176-.812.855-.607,1.679-1.219,2.449-1.822.284-.218.518-.4.739-.587.884-.7,1.773-1.452,2.65-2.232l.2-.178.211-.189c.816-.743,1.605-1.5,2.35-2.245-1.069-.449-2.137-.945-3.185-1.476-.473.459-.974.926-1.491,1.389-.492.449-1,.889-1.5,1.308-.552.473-1.122.94-1.687,1.384-.524.416-1.093.848-1.738,1.317s-1.279.925-1.975,1.4c-.6.406-1.156.764-1.694,1.095l-.192.118-.192-.118c-.5-.307-1.034-.655-1.686-1.094-.73-.492-1.379-.951-1.985-1.4-.567-.413-1.135-.842-1.729-1.309-.575-.452-1.146-.921-1.7-1.392-.442-.367-.917-.781-1.491-1.3s-1.155-1.058-1.686-1.578c-.5-.478-.9-.877-1.254-1.254-.634-.645-1.187-1.235-1.688-1.8-.378-.411-.739-.831-1.043-1.187-.564-.654-1.121-1.329-1.656-2.008-.29-.374-.588-.759-.872-1.144-.545-.721-1.076-1.462-1.576-2.2-.261-.375-.513-.751-.747-1.115-.523-.792-1.015-1.582-1.46-2.344-.218-.361-.436-.736-.661-1.141-.43-.752-.858-1.547-1.3-2.428-.2-.392-.4-.8-.592-1.2-.437-.9-.805-1.713-1.124-2.474-.171-.389-.351-.819-.548-1.308-.347-.864-.649-1.667-.923-2.453-.179-.5-.349-1-.506-1.493-.254-.778-.5-1.573-.719-2.364-.186-.659-.331-1.2-.454-1.709-.176-.687-.348-1.424-.521-2.246-.137-.639-.266-1.3-.383-1.95-.137-.768-.251-1.478-.347-2.171-.109-.725-.2-1.431-.272-2.153-.086-.754-.158-1.568-.213-2.419-.051-.713-.086-1.371-.106-2.01-.032-.775-.048-1.573-.048-2.37,0-.822.014-1.511.043-2.167l.009-.216.194-.1c.4-.2.831-.4,1.306-.624.928-.429,1.88-.843,2.829-1.23q.4-.16.8-.318l.086-.034c1.05-.414,2.158-.813,3.294-1.188.086-.029.174-.056.261-.085l.262-.085c1.154-.369,2.312-.707,3.45-1,.01-.074.022-.149.035-.226.161-1.139.368-2.3.618-3.447-.655.158-1.335.331-2.065.525-.523.142-1.075.3-1.684.484-.78.227-1.572.478-2.424.769-.611.206-1.24.427-1.873.66-.776.291-1.536.59-2.255.885-.669.274-1.339.561-1.992.853-.778.347-1.583.726-2.462,1.16-.463.229-.965.487-1.564.8-.1,1.531-.155,3.072-.155,4.582,0,1.54.054,3.078.158,4.583.035.524.073.983.116,1.4.087,1,.2,2,.343,3.06.042.3.084.6.132.91.173,1.153.38,2.312.617,3.446.028.151.059.291.09.434l.015.066c.265,1.238.572,2.489.912,3.722.018.054.037.127.055.2.353,1.247.717,2.414,1.105,3.547l1.361-.269-1.155.858c.423,1.2.878,2.373,1.351,3.5.016.041.029.072.042.1s.032.076.047.113c.493,1.161,1.036,2.344,1.608,3.5l.142.289c.546,1.086,1.15,2.21,1.8,3.341.062.107.114.2.172.288.625,1.08,1.3,2.168,2.015,3.247.058.09.113.17.174.256.74,1.11,1.5,2.171,2.255,3.163.041.059.079.11.116.157.819,1.073,1.676,2.126,2.55,3.137l-.212.183.014.018Z" transform="translate(-75.194 -34.634)" fill="#4cc21d"/>
        <path id="Path_265261" data-name="Path 265261" d="M104.737,133.47a.18.18,0,0,0-.034.018l.07.087Z" transform="translate(-88.384 -78.814)" fill="#4cc21d"/>
      </g>
    </g>
    <g id="Group_50" data-name="Group 50" transform="translate(49.685 2.388)">
      <g id="Group_48" data-name="Group 48" transform="translate(0.367 0.42)">
        <path id="Path_63" data-name="Path 63" d="M182.117,42.448c-.578-.307-1.16-.6-1.749-.9q-1.224-.612-2.48-1.166c-.662-.3-1.324-.588-2-.863h0c-.747-.307-1.5-.6-2.268-.885-.62-.233-1.25-.456-1.881-.668-.805-.27-1.616-.53-2.437-.773-.562-.17-1.129-.328-1.7-.482a18.355,18.355,0,0,0-1.9,3.338v.006q.04.222.064.445,1.851.477,3.666,1.065c.175.053.35.111.525.169,1.108.361,2.2.758,3.274,1.176.3.117.593.233.885.35q1.422.588,2.813,1.229h0c.435.2.864.4,1.293.615.032.715.043,1.436.043,2.156q0,1.185-.048,2.352c-.021.673-.058,1.34-.106,2-.053.805-.122,1.6-.212,2.4q-.111,1.081-.27,2.146c-.1.721-.212,1.436-.344,2.151-.116.651-.243,1.3-.381,1.944-.154.747-.329,1.494-.519,2.231-.138.567-.291,1.139-.45,1.7a17.727,17.727,0,0,0,3.9.985c.016-.064.037-.133.053-.2q.508-1.844.917-3.73c.036-.169.074-.345.111-.514.233-1.139.44-2.294.614-3.454.048-.307.09-.615.138-.927.138-1.013.254-2.034.339-3.063.048-.472.085-.943.117-1.42q.158-2.281.159-4.6v0Q182.286,44.832,182.117,42.448Z" transform="translate(-165.703 -36.716)" fill="#4cc21d"/>
      </g>
      <g id="Group_49" data-name="Group 49" transform="translate(0 0)">
        <path id="Path_64" data-name="Path 64" d="M179.817,65.245l-.325-.045a18.153,18.153,0,0,1-3.979-1.006l-.313-.119.091-.322c.177-.626.323-1.178.446-1.688.2-.754.369-1.5.517-2.218.133-.622.261-1.271.379-1.935.119-.645.231-1.343.342-2.137.106-.709.2-1.426.269-2.132.086-.761.155-1.541.211-2.387.051-.711.086-1.361.106-1.99.032-.775.047-1.562.047-2.34,0-.712-.011-1.344-.033-1.924-.348-.17-.693-.331-1.019-.482l-.076-.033c-.894-.414-1.809-.814-2.8-1.224-.287-.115-.583-.231-.879-.347-1.162-.452-2.227-.835-3.254-1.169l-.024-.008c-.164-.055-.328-.109-.493-.159-1.194-.388-2.421-.744-3.651-1.061l-.246-.064-.027-.252q-.022-.21-.06-.42l-.006-.064v-.077l.031-.076a18.769,18.769,0,0,1,1.94-3.4l.148-.206.244.066c.659.179,1.2.332,1.705.485.769.228,1.571.483,2.448.777.666.224,1.3.45,1.893.672.717.264,1.462.554,2.214.863l.069.026c.687.281,1.345.566,2.011.869.866.384,1.705.779,2.491,1.171.646.321,1.222.615,1.756.9l.179.1.014.2c.113,1.616.171,3.245.171,4.842,0,1.551-.054,3.107-.16,4.63-.036.541-.074,1-.118,1.431-.08.976-.191,1.984-.34,3.075-.023.153-.044.3-.066.444-.024.164-.048.327-.073.49-.173,1.143-.38,2.311-.618,3.472l-.113.519c-.264,1.231-.575,2.493-.921,3.749-.007.031-.019.076-.031.12Zm-3.731-1.619a17.482,17.482,0,0,0,3.187.8c.333-1.216.628-2.422.881-3.6l.112-.515c.234-1.144.44-2.3.61-3.431.025-.163.049-.324.072-.485s.043-.294.066-.443c.146-1.072.256-2.067.336-3.037.044-.433.081-.88.116-1.414.105-1.507.159-3.046.159-4.575s-.053-3.06-.155-4.593c-.477-.253-.99-.514-1.559-.8-.777-.389-1.606-.779-2.465-1.159-.639-.291-1.268-.564-1.922-.832h0l-.072-.028c-.765-.314-1.524-.611-2.255-.88-.586-.22-1.213-.443-1.871-.664-.869-.291-1.662-.543-2.425-.769-.435-.131-.9-.264-1.441-.413a17.988,17.988,0,0,0-1.674,2.966l.017.109c1.164.3,2.323.644,3.447,1.009.164.05.335.107.5.163,1.06.345,2.137.732,3.314,1.19q.449.176.888.351c.962.4,1.889.8,2.758,1.2h0l.079.034c.411.191.854.4,1.3.619l.194.1.009.216c.029.649.043,1.36.043,2.172,0,.789-.016,1.585-.048,2.367-.02.635-.055,1.295-.106,2.014-.056.855-.126,1.646-.213,2.415-.073.714-.165,1.442-.272,2.158-.112.8-.226,1.51-.347,2.163-.119.669-.248,1.328-.383,1.955-.15.728-.326,1.484-.523,2.245C176.344,62.667,176.225,63.123,176.086,63.626Z" transform="translate(-165.04 -35.956)" fill="#4cc21d"/>
      </g>
    </g>
    <g id="Group_53" data-name="Group 53" transform="translate(32.127 8.158)">
      <g id="Group_51" data-name="Group 51" transform="translate(0.366 0.366)">
        <path id="Path_65" data-name="Path 65" d="M142.354,47.482c-.88-.111-1.77-.2-2.66-.265-.45-.032-.9-.058-1.351-.085-.906-.048-1.812-.08-2.724-.08-.217-.011-.663.164-.88.164s-.747,2.5-.778,3.857c-.006.27-.011.541-.011.811,0,1.081.048,2.146.149,3.2a34.329,34.329,0,0,0,.614,4.01h.006c.069.35.148.7.238,1.044q.373,1.518.885,2.977a33.906,33.906,0,0,0,1.3,3.211c.138.291.281.583.424.874h0a32.715,32.715,0,0,0,2.008,3.475q.271.414.557.811a33.186,33.186,0,0,0,2.124,2.728q1.025,1.185,2.146,2.262h.006c.254.249.508.488.768.721a33.944,33.944,0,0,0,6.575,4.673c.345-.567.672-1.139,1-1.722s.646-1.187.959-1.786A29.836,29.836,0,0,1,150.3,76.2a29.428,29.428,0,0,1-3.168-2.675c-.2-.191-.4-.393-.593-.593h-.006a30.367,30.367,0,0,1-4.026-5.134c-.345-.546-.667-1.108-.975-1.679-.466-.874-.9-1.78-1.277-2.707a29.463,29.463,0,0,1-1.16-3.327v0c-.08-.275-.153-.551-.222-.832a29.574,29.574,0,0,1-.726-4.075,29.094,29.094,0,0,1-.18-3.285c0-.249.006-.5.01-.753.668.037,1.336.08,2,.143s1.346.122,2.013.207c0,.132,0,.27,0,.4a26.394,26.394,0,0,0,1.208,7.878.273.273,0,0,1,.064.011.4.4,0,0,1-.021.117,25.8,25.8,0,0,0,1.839,4.329c.265.5.545.98.847,1.457a25.91,25.91,0,0,0,2.835,3.756.78.78,0,0,1,.106.037.223.223,0,0,1-.022.053A26.263,26.263,0,0,0,152,72.452a26.762,26.762,0,0,0,3.412,2.262c.265-.614.519-1.24.763-1.871s.477-1.276.7-1.923a21.609,21.609,0,0,1-3.412-2.48A22.871,22.871,0,0,1,151.1,66c-.275-.333-.54-.673-.8-1.022a21.9,21.9,0,0,1-2.438-4.217c-.175-.393-.333-.79-.487-1.192v-.006a21.841,21.841,0,0,1-.933-3.269A22.228,22.228,0,0,1,146,52.107c.672.122,1.34.265,2,.418q1.033.231,2.051.509a17.874,17.874,0,0,0,.837,4.419q.27.834.62,1.637v0a18.166,18.166,0,0,0,2.055,3.555h.006a17.039,17.039,0,0,0,1.112,1.362,18.007,18.007,0,0,0,3.407,2.93c.18-.652.344-1.3.493-1.96.175-.768.339-1.542.477-2.32a14.01,14.01,0,0,1-2.851-3.264,10.806,10.806,0,0,1-.556-.959,13.594,13.594,0,0,1-1.4-4.106,13.8,13.8,0,0,1-.1-4.271c-.721-.238-1.446-.461-2.183-.667-.567-.159-1.139-.312-1.717-.455q-1.176-.3-2.369-.551c-.519-.111-1.039-.212-1.558-.307-.837-.159-1.684-.3-2.538-.413C143.313,47.6,142.837,47.535,142.354,47.482Z" transform="translate(-133.951 -47.052)" fill="#4cc21d"/>
      </g>
      <g id="Group_52" data-name="Group 52" transform="translate(0)">
        <path id="Path_66" data-name="Path 66" d="M151.594,82.064l-.306-.166a34.3,34.3,0,0,1-6.647-4.724c-.233-.209-.46-.42-.688-.643l-.092-.085c-.76-.733-1.489-1.5-2.168-2.287a33.685,33.685,0,0,1-2.148-2.758c-.189-.263-.379-.54-.563-.82a33.254,33.254,0,0,1-1.927-3.31h0l-.106-.2c-.147-.3-.289-.589-.425-.879a34.486,34.486,0,0,1-1.319-3.247c-.348-1-.65-2.017-.894-3.011-.075-.285-.144-.583-.207-.885l-.039-.169a34.82,34.82,0,0,1-.62-4.054c-.1-1.041-.151-2.13-.151-3.234,0-.273.006-.546.011-.818a14.247,14.247,0,0,1,.139-2.627,2.23,2.23,0,0,1,.592-1.135,1.775,1.775,0,0,1,1.31-.618h.02c.811,0,1.677.025,2.7.08.456.027.907.054,1.358.085.987.076,1.862.164,2.677.267.436.048.9.107,1.445.186.858.117,1.719.257,2.554.416.582.107,1.095.208,1.566.309.76.157,1.563.344,2.382.555.528.131,1.093.28,1.725.457.728.2,1.468.431,2.2.672l.288.1-.04.3a13.462,13.462,0,0,0,.092,4.158,13.251,13.251,0,0,0,1.367,4,10.589,10.589,0,0,0,.539.93A13.645,13.645,0,0,0,159,62.085l.163.135-.037.208c-.123.695-.275,1.438-.48,2.338-.148.653-.315,1.318-.5,1.977l-.134.486-.42-.278a18.422,18.422,0,0,1-3.476-2.991c-.374-.415-.718-.832-1.025-1.241h0l-.116-.149a18.629,18.629,0,0,1-2.1-3.626l-.03-.076c-.225-.521-.427-1.059-.6-1.6a18.278,18.278,0,0,1-.836-4.246c-.588-.157-1.187-.3-1.783-.437-.561-.13-1.071-.239-1.548-.332a21.881,21.881,0,0,0,.423,3.675,21.485,21.485,0,0,0,.917,3.215l.023.065c.166.432.311.786.456,1.111a21.611,21.611,0,0,0,2.4,4.149c.26.351.518.681.787,1.006a22.481,22.481,0,0,0,2.329,2.4,21.248,21.248,0,0,0,3.355,2.438l.258.152-.1.283c-.222.645-.459,1.3-.7,1.935s-.509,1.281-.768,1.884l-.161.372-.353-.2a27.3,27.3,0,0,1-3.459-2.293,26.7,26.7,0,0,1-3.208-2.972l-.086-.091a26.352,26.352,0,0,1-2.874-3.809c-.309-.488-.591-.972-.86-1.478a26.236,26.236,0,0,1-1.823-4.262h0l-.081-.255a26.741,26.741,0,0,1-1.225-7.989v-.08c-.551-.065-1.112-.121-1.671-.165s-1.11-.091-1.61-.121c0,.123,0,.245,0,.366a30.223,30.223,0,0,0,.9,7.269c.066.271.138.538.22.82l.014.055a29.215,29.215,0,0,0,1.132,3.237c.37.9.8,1.8,1.262,2.677.322.6.637,1.142.962,1.656.535.857,1.1,1.674,1.686,2.43a29.122,29.122,0,0,0,2.185,2.534h0l.113.111c.179.184.383.393.583.583a29.061,29.061,0,0,0,3.133,2.646,29.529,29.529,0,0,0,3.371,2.141l.316.172-.166.32c-.38.728-.677,1.281-.964,1.794-.355.64-.682,1.207-1,1.734Zm-7.332-6.247h0l.112.1c.253.247.5.479.757.71a33.6,33.6,0,0,0,6.2,4.455c.258-.433.524-.9.808-1.41.241-.431.489-.89.789-1.46a30.321,30.321,0,0,1-3.138-2.02,29.786,29.786,0,0,1-3.207-2.708c-.173-.164-.347-.341-.507-.5l-.1-.1a29.9,29.9,0,0,1-2.349-2.709c-.6-.775-1.179-1.612-1.726-2.487-.333-.528-.656-1.084-.987-1.7-.479-.9-.914-1.82-1.293-2.741a29.907,29.907,0,0,1-1.174-3.367l-.014-.053c-.079-.273-.148-.534-.212-.8a29.944,29.944,0,0,1-.734-4.123,29.534,29.534,0,0,1-.182-3.324c0-.246.006-.5.011-.744l.008-.378.379,0c.6.033,1.305.076,2.012.144.675.053,1.358.123,2.025.208l.332.043-.013.335c-.006.127-.006.26-.006.388a26.055,26.055,0,0,0,1.128,7.568l.143.036v.285a.673.673,0,0,1-.008.1A25.574,25.574,0,0,0,145.1,63.75c.262.491.534.959.835,1.434a25.562,25.562,0,0,0,2.732,3.635l.042.018.314.134-.059.171a26.011,26.011,0,0,0,2.97,2.727,26.61,26.61,0,0,0,3.011,2.03c.2-.479.4-.976.6-1.482.206-.537.406-1.084.6-1.63a21.975,21.975,0,0,1-3.212-2.367,23.336,23.336,0,0,1-2.406-2.476c-.278-.337-.544-.677-.813-1.039a22.33,22.33,0,0,1-2.479-4.289c-.156-.349-.313-.735-.494-1.208l-.024-.07a22.254,22.254,0,0,1-.925-3.262,22.721,22.721,0,0,1-.447-4.259l0-.444.436.079c.613.111,1.274.249,2.02.422.689.153,1.384.326,2.064.512l.253.069.016.262a17.561,17.561,0,0,0,.82,4.328c.176.543.38,1.083.607,1.6l.03.075a17.836,17.836,0,0,0,1.876,3.265h0l.115.151a16.729,16.729,0,0,0,1.088,1.332,17.665,17.665,0,0,0,2.917,2.582c.128-.484.247-.969.354-1.448.182-.8.322-1.473.436-2.1A14.344,14.344,0,0,1,155.6,59.3a11.143,11.143,0,0,1-.572-.986,13.978,13.978,0,0,1-1.439-4.213,14.241,14.241,0,0,1-.222-2.509,14.014,14.014,0,0,1,.088-1.568c-.628-.2-1.259-.395-1.882-.57s-1.182-.323-1.7-.452c-.811-.209-1.6-.393-2.355-.548-.466-.1-.972-.2-1.55-.306-.825-.156-1.673-.295-2.521-.411-.545-.079-1-.137-1.426-.184h-.007c-.8-.1-1.668-.188-2.642-.263-.446-.032-.894-.058-1.341-.084-1.025-.054-1.884-.079-2.706-.079-.229-.011-.444-.011-.656-.011-.116,0-.232,0-.348,0a33.457,33.457,0,0,0-.288,3.673c0,.266-.01.534-.01.8,0,1.082.05,2.146.147,3.165a34.11,34.11,0,0,0,.547,3.679h0l.064.3c.068.347.147.69.233,1.022.241.977.535,1.968.877,2.95a33.693,33.693,0,0,0,1.29,3.176q.168.353.342.707l.084.159a32.284,32.284,0,0,0,1.986,3.436c.179.273.362.541.547.8a32.994,32.994,0,0,0,2.1,2.7c.633.732,1.311,1.449,2.017,2.136Z" transform="translate(-133.29 -46.39)" fill="#4cc21d"/>
      </g>
    </g>
    <g id="Group_56" data-name="Group 56" transform="translate(24.094)">
      <g id="Group_54" data-name="Group 54" transform="translate(0.367 0.365)">
        <path id="Path_67" data-name="Path 67" d="M156.054,70.806a25.806,25.806,0,0,1-3.481-1.006c-.35.826-.726,1.642-1.113,2.448-.191.4-.387.8-.593,1.2-.414.816-.842,1.616-1.293,2.411-.212.381-.435.763-.662,1.139q-.691,1.185-1.446,2.326c-.244.377-.488.747-.747,1.113a36.9,36.9,0,0,1-3.65-1.78,36.4,36.4,0,0,1-3.407-2.141,36.817,36.817,0,0,1-3.163-2.485q-.294-.255-.588-.525h0c-.806-.736-1.584-1.5-2.326-2.31s-1.452-1.637-2.12-2.5c-.19-.244-.376-.488-.561-.737a36.889,36.889,0,0,1-2.246-3.412c-.064-.1-.127-.212-.186-.318a36.366,36.366,0,0,1-1.838-3.655c-.122-.276-.238-.551-.354-.832-.414-1.018-.79-2.051-1.118-3.11q-.477-1.542-.827-3.137v-.006c-.064-.27-.117-.535-.169-.805A37.548,37.548,0,0,1,123.6,48.7q-.151-1.685-.154-3.412c0-.2,0-.408.006-.609a37.882,37.882,0,0,1,.281-4.058q.215-1.788.6-3.523v0c.037-.18.08-.361.122-.541,1.277-.08,2.565-.117,3.863-.122h.312c1.3.006,2.58.043,3.857.117a2.511,2.511,0,0,0,.281.016q1.971.135,3.91.371c.058.006.122.016.18.022a25.353,25.353,0,0,1,1.7-3.942c-.985-.143-1.981-.259-2.978-.36-.424-.043-.847-.085-1.271-.117H134.3c-1.017-.085-2.035-.143-3.062-.185-.408-.016-.816-.027-1.224-.037q-.771-.017-1.542-.016c-.519,0-1.039,0-1.552.016-.408.011-.816.021-1.224.037-1.028.043-2.045.1-3.063.191-.424.032-.853.069-1.276.116h-.006a41.081,41.081,0,0,0-1.091,4.276c-.027.117-.048.233-.069.35v0c-.244,1.24-.429,2.506-.556,3.783q-.2,2.019-.207,4.091v.127c0,1.319.059,2.628.18,3.915.122,1.345.313,2.675.562,3.979a.106.106,0,0,1,.058-.011c-.01.037-.021.074-.037.117V53.3c.244,1.287.551,2.559.917,3.8.233.821.5,1.626.784,2.427.169.482.354.964.545,1.441.424,1.06.89,2.1,1.4,3.121.111.233.233.466.355.7q.85,1.629,1.834,3.174c.143.222.286.445.434.662q.946,1.423,2,2.761c.323.413.651.816.99,1.213h.006q.8.961,1.684,1.865c.906.954,1.865,1.865,2.856,2.724a.454.454,0,0,1,.09.021.16.16,0,0,0-.027.032c1.012.874,2.072,1.7,3.163,2.48s2.23,1.5,3.4,2.172a40.326,40.326,0,0,0,3.656,1.87c1.145.519,2.321.985,3.518,1.4l.371.128q1.183-1.559,2.267-3.179c.058-.085.116-.175.175-.259.705-1.065,1.383-2.151,2.024-3.258.058-.1.117-.2.175-.3q.954-1.652,1.807-3.369c.048-.1.1-.186.143-.281.572-1.16,1.118-2.341,1.621-3.539-.111-.1-.217-.2-.328-.286Z" transform="translate(-119.428 -32.299)" fill="#4cc21d"/>
      </g>
      <g id="Group_55" data-name="Group 55" transform="translate(0)">
        <path id="Path_68" data-name="Path 68" d="M148.009,85.418l-.622-.215c-1.217-.42-2.411-.9-3.549-1.411a40.532,40.532,0,0,1-3.688-1.887c-1.16-.661-2.315-1.4-3.43-2.191s-2.186-1.635-3.173-2.486h0l-.078-.067c-1.016-.881-1.985-1.805-2.882-2.748-.568-.583-1.114-1.185-1.619-1.785l-.085-.095c-.341-.4-.668-.8-1-1.225-.7-.882-1.379-1.819-2.02-2.783-.144-.211-.285-.43-.426-.65-.658-1.028-1.28-2.1-1.862-3.22-.124-.237-.247-.474-.361-.711-.5-.984-.974-2.044-1.413-3.143-.223-.556-.4-1.02-.551-1.455-.314-.878-.573-1.68-.791-2.448-.327-1.109-.609-2.251-.84-3.4h0l-.051-.272-.031-.16-.021-.111c-.256-1.341-.447-2.692-.567-4.015-.121-1.274-.181-2.6-.181-3.948v-.128c0-1.387.075-2.774.208-4.126.128-1.285.315-2.56.556-3.792l0-.025c.022-.122.044-.244.072-.366a41.43,41.43,0,0,1,1.1-4.3l.08-.257h.254c.377-.042.78-.079,1.27-.116.919-.081,1.926-.144,3.075-.191.41-.016.82-.027,1.229-.038,1.031-.021,2.073-.021,3.111,0,.411.011.822.022,1.231.038,1.116.046,2.119.106,3.066.185h.014c.427.032.854.075,1.281.117,1.1.112,2.083.231,2.995.363l.516.075-.247.46a24.958,24.958,0,0,0-1.677,3.885l-.091.275-.288-.026-.106-.012-.075-.009c-1.255-.154-2.56-.278-3.89-.369a3.018,3.018,0,0,1-.308-.018c-1.214-.07-2.505-.109-3.818-.114h-.311c-1.261,0-2.432.039-3.568.105-.018.076-.035.153-.05.229l-.009.046c-.253,1.151-.453,2.324-.592,3.488a37.592,37.592,0,0,0-.279,4.02c0,.2,0,.405,0,.6,0,1.117.051,2.253.152,3.379a37.54,37.54,0,0,0,.556,3.941c.052.266.1.526.166.792l.01.049c.227,1.03.5,2.062.81,3.068s.674,2.013,1.107,3.081c.114.275.229.548.351.821a35.972,35.972,0,0,0,1.821,3.621c.058.106.118.211.178.305a36.858,36.858,0,0,0,2.232,3.387c.184.246.367.488.556.729.658.851,1.363,1.683,2.1,2.477.673.731,1.412,1.467,2.2,2.193l.111.1q.29.266.58.517a36.862,36.862,0,0,0,3.134,2.462,37.4,37.4,0,0,0,6.717,3.766c.183-.266.364-.542.569-.858.507-.768.99-1.545,1.438-2.312.236-.39.457-.769.659-1.132.447-.791.88-1.6,1.286-2.4.2-.38.39-.769.589-1.189.434-.9.795-1.7,1.107-2.434l.136-.321.327.12a25.505,25.505,0,0,0,3.431.993l.106.023.069.068c.111.091.217.186.328.287l.192.174-.1.239c-.478,1.138-1.027,2.335-1.63,3.559l-.144.283c-.556,1.122-1.168,2.263-1.817,3.389l-.175.3c-.618,1.067-1.3,2.17-2.036,3.277l-.179.264c-.7,1.058-1.472,2.133-2.278,3.194Zm-13.7-8.5c.89.754,1.844,1.495,2.84,2.205,1.094.777,2.229,1.5,3.37,2.152a39.918,39.918,0,0,0,3.624,1.855c1.118.507,2.291.973,3.488,1.386l.119.041c.738-.98,1.443-1.971,2.1-2.95l.084-.126c.032-.046.062-.093.093-.139.721-1.09,1.4-2.18,2.009-3.235l.174-.3c.641-1.113,1.246-2.24,1.8-3.349l.144-.282c.554-1.123,1.061-2.225,1.509-3.277l-.06-.051a26.149,26.149,0,0,1-3.115-.885c-.284.658-.608,1.363-.984,2.146-.2.427-.4.822-.6,1.208-.409.808-.847,1.625-1.3,2.422-.2.368-.43.755-.667,1.148-.452.773-.942,1.562-1.454,2.338-.27.417-.5.769-.754,1.123l-.17.239-.27-.114a37.376,37.376,0,0,1-3.686-1.8,36.809,36.809,0,0,1-3.44-2.161,37.449,37.449,0,0,1-3.193-2.509c-.161-.14-.325-.285-.488-.434l-.111-.1c-.842-.771-1.632-1.555-2.348-2.332-.75-.809-1.47-1.658-2.14-2.524-.191-.244-.378-.491-.565-.742a37.524,37.524,0,0,1-2.27-3.446c-.06-.1-.128-.213-.19-.326A36.748,36.748,0,0,1,126,60.42c-.122-.276-.239-.554-.358-.837-.442-1.089-.811-2.116-1.129-3.142s-.6-2.1-.834-3.166l-.009-.041c-.06-.26-.111-.516-.162-.777a37.964,37.964,0,0,1-.567-4.018c-.1-1.146-.155-2.3-.155-3.443,0-.2,0-.415,0-.619a38.377,38.377,0,0,1,.284-4.094c.142-1.177.343-2.364.6-3.529l.006-.029c.038-.183.081-.367.124-.55l.062-.264.272-.017c1.236-.077,2.506-.117,3.884-.123h.314c1.328.006,2.632.045,3.879.118a2.541,2.541,0,0,0,.259.015h.025c1.306.09,2.589.21,3.814.358a25.721,25.721,0,0,1,1.387-3.253c-.755-.1-1.562-.2-2.45-.286-.416-.041-.832-.083-1.249-.114h-.022c-.941-.079-1.938-.139-3.046-.185-.405-.016-.812-.027-1.219-.037-1.024-.021-2.059-.02-3.076,0-.4.011-.811.021-1.217.037-1.136.047-2.132.109-3.044.19-.393.029-.728.059-1.036.091a40.769,40.769,0,0,0-1.01,4.008c-.025.11-.044.212-.062.312l-.007.043c-.239,1.217-.425,2.479-.551,3.748-.131,1.328-.2,2.693-.205,4.056v.126c0,1.323.06,2.629.178,3.881.109,1.2.277,2.42.5,3.637h.242l-.133.466c0,.014-.008.028-.012.042.238,1.239.538,2.475.891,3.675.215.756.469,1.542.778,2.407.15.428.322.881.54,1.428.432,1.079.9,2.119,1.391,3.092.113.237.232.466.352.695.572,1.1,1.183,2.154,1.818,3.146.148.231.286.445.428.653.632.951,1.3,1.871,1.988,2.74.291.372.578.725.873,1.074h0l.115.132c.516.618,1.077,1.238,1.666,1.844.862.907,1.79,1.794,2.762,2.641.018,0,.036.012.055.019l.52.2Z" transform="translate(-118.764 -31.638)" fill="#4cc21d"/>
      </g>
    </g>
    <g id="Group_59" data-name="Group 59" transform="translate(8.155 9.408)">
      <path id="Path_265262" data-name="Path 265262" d="M110.129,102.173l0,0c-.24-.4-.478-.809-.707-1.223-.376-.669-.743-1.359-1.089-2.053-.116-.227-.232-.461-.345-.7.3.623.594,1.213.881,1.757C109.286,100.738,109.744,101.53,110.129,102.173Z" transform="translate(-98.009 -70.799)" fill="#4cc21d"/>
      <path id="Path_265263" data-name="Path 265263" d="M126.252,124.487c-.924-.6-1.869-1.264-2.807-1.975-.182-.133-.375-.278-.575-.433-1.072-.832-2.129-1.713-3.139-2.618l-.153-.141-.009-.008h0c-.142-.129-.289-.263-.437-.407-.771-.711-1.547-1.474-2.305-2.269-.3-.31-.6-.635-.89-.951l-.029-.031c-.56-.619-1.13-1.279-1.744-2.017-.337-.408-.665-.821-.974-1.227-.476-.607-.948-1.246-1.442-1.954-.291-.4-.589-.838-.94-1.37-.085-.129-.158-.241-.223-.342l-.018-.028h0l.018.028-4.178,2.288.213.324c.381.588.748,1.132,1.123,1.661.352.513.745,1.056,1.2,1.661.358.476.787,1.037,1.249,1.589.4.507.828,1.026,1.321,1.588.433.5.883,1,1.375,1.525.431.465.915.967,1.477,1.536.455.455.948.928,1.465,1.406.566.535,1.165,1.071,1.78,1.594.505.441.963.821,1.4,1.164a2.975,2.975,0,0,0,1.27.381,10.143,10.143,0,0,0,1.275.665l.174.124a2.243,2.243,0,0,0,.554.2,3.119,3.119,0,0,0,.709.124.268.268,0,0,0,.153-.031c.186-.132.374-.268.559-.4a5.8,5.8,0,0,0,1.495-.713,2.582,2.582,0,0,0,1.087-.352l.391-.317Z" transform="translate(-97.3 -75.5)" fill="#4cc21d"/>
      <path id="Path_265264" data-name="Path 265264" d="M103.812,108.627q-.236-.4-.492-.853c.166.3.328.578.49.854Z" transform="translate(-95.921 -75.079)" fill="#4cc21d"/>
      <path id="Path_265265" data-name="Path 265265" d="M101.4,104.16c-.395-.733-.779-1.5-1.11-2.193l0,0c.182.379.365.753.543,1.109.285.551.538,1.026.774,1.453C101.537,104.408,101.469,104.282,101.4,104.16Z" transform="translate(-94.566 -72.483)" fill="#4cc21d"/>
      <path id="Path_265266" data-name="Path 265266" d="M124.962,91.968c-1.135-.674-2.272-1.421-3.379-2.223-.836-.6-1.594-1.19-2.317-1.792l-.283-.233c-.194-.162-.368-.309-.542-.46-1.027-.9-2-1.818-2.894-2.736-.279-.285-.544-.565-.808-.855-.687-.744-1.293-1.443-1.852-2.137-.406-.49-.817-1.015-1.254-1.606-.375-.5-.755-1.036-1.161-1.628-.439-.651-.86-1.31-1.289-2.014-.3-.5-.6-1.016-.884-1.53-.387-.7-.758-1.413-1.1-2.131-.275-.555-.546-1.144-.829-1.8-.3-.685-.554-1.309-.778-1.907-.332-.87-.64-1.758-.915-2.639-.115-.364-.231-.754-.347-1.16-.379-1.349-.678-2.616-.914-3.873l-.016-.085,0-.012c-.054-.286-.109-.583-.155-.881l-.006-.04c-.163-.94-.3-1.929-.4-2.941-.14-1.362-.216-2.728-.227-4.061-.01-.2-.01-.405-.01-.6V52.6c0-1.16.043-2.326.126-3.465l.035-.483-.474.1c-.846.175-1.625.354-2.382.549-.582.144-1.163.3-1.728.464-.7.2-1.415.414-2.2.667-.675.215-1.292.426-1.886.644-.622.222-1.29.475-2.042.773a3.017,3.017,0,0,0-.9.806,5.922,5.922,0,0,0-.528.748,4.956,4.956,0,0,0-.424.9,5.255,5.255,0,0,0-.257,1.613A12.166,12.166,0,0,0,90,57.258l0,.017c0,.04.007.078.01.113.022.312.049.612.08.891.1,1.081.238,2.213.421,3.365.1.665.2,1.253.309,1.794.125.7.282,1.472.481,2.346.126.54.3,1.251.494,1.968.16.625.351,1.3.582,2.052.2.661.42,1.317.639,1.949.233.683.465,1.318.708,1.94.222.588.472,1.2.763,1.878.055.131.109.255.164.38l4.271-2.09c-.117-.274-.234-.558-.349-.843-.211-.5-.406-.991-.578-1.46-.3-.775-.59-1.623-.874-2.518-.128-.381-.254-.789-.4-1.285-.319-1.092-.585-2.11-.811-3.112-.064-.273-.121-.538-.174-.811-.283-1.3-.519-2.656-.7-4.035l-.011-.077,0-.033c-.027-.2-.052-.383-.075-.579-.126-1.05-.221-2.122-.285-3.188.465-.18.939-.351,1.449-.524.6-.213,1.2-.414,1.78-.6.049,1.2.148,2.432.292,3.664.041.409.1.852.181,1.4.126.917.279,1.809.453,2.653.215,1.11.472,2.209.766,3.267.056.24.122.469.185.69.367,1.3.792,2.59,1.265,3.844l.124.329h0c.433,1.146.917,2.287,1.44,3.389a3.485,3.485,0,0,0,.172.362c.514,1.091,1.093,2.2,1.721,3.3l0,0c.08.138.162.28.239.4.6,1.037,1.267,2.091,1.987,3.132.077.12.149.223.218.317.794,1.136,1.611,2.211,2.429,3.2l.034.04c.855,1.043,1.76,2.053,2.689,3,.166.176.338.354.512.528.865.859,1.661,1.6,2.432,2.277.718.634,1.4,1.2,2.089,1.743.342.276.7.551,1.092.841,1.1.818,2.252,1.606,3.431,2.343l.237.148h0l.205-.189c.522-.483,1.016-.957,1.469-1.41.565-.571,1.048-1.073,1.475-1.534l.308-.332Z" transform="translate(-89.94 -48.651)" fill="#4cc21d"/>
      <path id="Path_265267" data-name="Path 265267" d="M103.013,107.224c-.118-.208-.233-.416-.344-.617.062.112.128.229.194.347l.15.27Z" transform="translate(-95.63 -74.557)" fill="#4cc21d"/>
    </g>
    <g id="Group_51118" data-name="Group 51118" transform="translate(7.768 36.66)">
      <g id="Group_51118-2" data-name="Group 51118-2">
        <path id="Path_265252" data-name="Path 265252" d="M99.579,97.931l2.129,3.887-10.338,5.661-2.129-3.886,6.144-3.364" transform="translate(-89.241 -97.931)" fill="#4cc21d"/>
        <path id="Path_265268" data-name="Path 265268" d="M100.631,100.144l4.04-2.213" transform="translate(-94.332 -97.931)" fill="#4cc21d"/>
      </g>
    </g>
    <path id="Path_265251" data-name="Path 265251" d="M128.991,135.348l5.967-3.457,3.244,2.21-3.439,2.541a4.011,4.011,0,0,1-2.533.537A6.859,6.859,0,0,1,128.991,135.348Z" transform="translate(-99.241 -76.451)" fill="#4cc21d"/>
  </g>
</svg>
